REM DIRINDEX 1\2\4,1\2\5,1\2\6,1\3\7,1\3\8
REM DIRNAME cjc128,folder01,folder02,folder03,folder04,folder05,folder06,folder07
TITLE ""
FILE "024_Lesson 20_Output_Stage.mp3" MP3
  TRACK 01 AUDIO
    TITLE "0:"
    INDEX 01 00:00:00
  TRACK 02 AUDIO
    TITLE "6:cjc128_1437"
    INDEX 01 00:00:09
  TRACK 03 AUDIO
    TITLE "0:"
    INDEX 01 00:02:73
  TRACK 04 AUDIO
    TITLE "6:cjc128_1438"
    INDEX 01 00:03:53
  TRACK 05 AUDIO
    TITLE "0:"
    INDEX 01 00:05:56
  TRACK 06 AUDIO
    TITLE "4:cjc128_1439"
    INDEX 01 00:06:47
  TRACK 07 AUDIO
    TITLE "0:"
    INDEX 01 00:10:55
  TRACK 08 AUDIO
    TITLE "5:cjc128_1440"
    INDEX 01 00:15:60
  TRACK 09 AUDIO
    TITLE "0:"
    INDEX 01 00:19:50
  TRACK 10 AUDIO
    TITLE "6:cjc128_1441"
    INDEX 01 00:20:43
  TRACK 11 AUDIO
    TITLE "0:"
    INDEX 01 00:22:44
  TRACK 12 AUDIO
    TITLE "4:cjc128_1442"
    INDEX 01 00:23:46
  TRACK 13 AUDIO
    TITLE "0:"
    INDEX 01 00:27:61
  TRACK 14 AUDIO
    TITLE "5:cjc128_1443"
    INDEX 01 00:31:61
  TRACK 15 AUDIO
    TITLE "0:"
    INDEX 01 00:35:04
  TRACK 16 AUDIO
    TITLE "6:cjc128_1444"
    INDEX 01 00:35:66
  TRACK 17 AUDIO
    TITLE "0:"
    INDEX 01 00:37:69
  TRACK 18 AUDIO
    TITLE "4:cjc128_1445"
    INDEX 01 00:38:71
  TRACK 19 AUDIO
    TITLE "0:"
    INDEX 01 00:42:43
  TRACK 20 AUDIO
    TITLE "5:cjc128_1446"
    INDEX 01 00:46:70
  TRACK 21 AUDIO
    TITLE "0:"
    INDEX 01 00:50:44
  TRACK 22 AUDIO
    TITLE "6:cjc128_1447"
    INDEX 01 00:51:20
  TRACK 23 AUDIO
    TITLE "0:"
    INDEX 01 00:53:35
  TRACK 24 AUDIO
    TITLE "4:cjc128_1448"
    INDEX 01 00:54:15
  TRACK 25 AUDIO
    TITLE "0:"
    INDEX 01 00:58:58
  TRACK 26 AUDIO
    TITLE "5:cjc128_1449"
    INDEX 01 01:02:69
  TRACK 27 AUDIO
    TITLE "0:"
    INDEX 01 01:06:28
  TRACK 28 AUDIO
    TITLE "6:cjc128_1450"
    INDEX 01 01:07:06
  TRACK 29 AUDIO
    TITLE "0:"
    INDEX 01 01:09:10
  TRACK 30 AUDIO
    TITLE "4:cjc128_1451"
    INDEX 01 01:09:73
  TRACK 31 AUDIO
    TITLE "0:"
    INDEX 01 01:13:53
  TRACK 32 AUDIO
    TITLE "5:cjc128_1452"
    INDEX 01 01:16:58
  TRACK 33 AUDIO
    TITLE "0:"
    INDEX 01 01:19:07
  TRACK 34 AUDIO
    TITLE "6:cjc128_1453"
    INDEX 01 01:19:68
  TRACK 35 AUDIO
    TITLE "0:"
    INDEX 01 01:21:74
  TRACK 36 AUDIO
    TITLE "4:cjc128_1454"
    INDEX 01 01:22:62
  TRACK 37 AUDIO
    TITLE "0:"
    INDEX 01 01:29:35
  TRACK 38 AUDIO
    TITLE "5:cjc128_1455"
    INDEX 01 01:34:71
  TRACK 39 AUDIO
    TITLE "0:"
    INDEX 01 01:39:53
  TRACK 40 AUDIO
    TITLE "6:cjc128_1456"
    INDEX 01 01:40:36
  TRACK 41 AUDIO
    TITLE "0:"
    INDEX 01 01:42:28
  TRACK 42 AUDIO
    TITLE "4:cjc128_1457"
    INDEX 01 01:43:25
  TRACK 43 AUDIO
    TITLE "0:"
    INDEX 01 01:48:60
  TRACK 44 AUDIO
    TITLE "5:cjc128_1458"
    INDEX 01 01:52:71
  TRACK 45 AUDIO
    TITLE "0:"
    INDEX 01 01:56:47
  TRACK 46 AUDIO
    TITLE "6:cjc128_1459"
    INDEX 01 01:57:33
  TRACK 47 AUDIO
    TITLE "0:"
    INDEX 01 01:59:34
  TRACK 48 AUDIO
    TITLE "4:cjc128_1460"
    INDEX 01 02:00:27
  TRACK 49 AUDIO
    TITLE "0:"
    INDEX 01 02:05:40
  TRACK 50 AUDIO
    TITLE "5:cjc128_1461"
    INDEX 01 02:09:64
  TRACK 51 AUDIO
    TITLE "0:"
    INDEX 01 02:13:22
  TRACK 52 AUDIO
    TITLE "6:cjc128_1462"
    INDEX 01 02:14:14
  TRACK 53 AUDIO
    TITLE "0:"
    INDEX 01 02:15:54
  TRACK 54 AUDIO
    TITLE "4:cjc128_1463"
    INDEX 01 02:16:52
  TRACK 55 AUDIO
    TITLE "0:"
    INDEX 01 02:19:40
  TRACK 56 AUDIO
    TITLE "5:cjc128_1464"
    INDEX 01 02:23:25
  TRACK 57 AUDIO
    TITLE "0:"
    INDEX 01 02:26:01
  TRACK 58 AUDIO
    TITLE "6:cjc128_1465"
    INDEX 01 02:26:66
  TRACK 59 AUDIO
    TITLE "0:"
    INDEX 01 02:28:55
  TRACK 60 AUDIO
    TITLE "4:cjc128_1466"
    INDEX 01 02:29:49
  TRACK 61 AUDIO
    TITLE "0:"
    INDEX 01 02:32:20
  TRACK 62 AUDIO
    TITLE "5:cjc128_1467"
    INDEX 01 02:35:36
  TRACK 63 AUDIO
    TITLE "0:"
    INDEX 01 02:37:70
  TRACK 64 AUDIO
    TITLE "6:cjc128_1468"
    INDEX 01 02:38:52
  TRACK 65 AUDIO
    TITLE "0:"
    INDEX 01 02:40:45
  TRACK 66 AUDIO
    TITLE "4:cjc128_1469"
    INDEX 01 02:41:38
  TRACK 67 AUDIO
    TITLE "0:"
    INDEX 01 02:45:46
  TRACK 68 AUDIO
    TITLE "5:cjc128_1470"
    INDEX 01 02:49:51
  TRACK 69 AUDIO
    TITLE "0:"
    INDEX 01 02:52:73
  TRACK 70 AUDIO
    TITLE "6:cjc128_1471"
    INDEX 01 02:53:65
  TRACK 71 AUDIO
    TITLE "0:"
    INDEX 01 02:55:52
  TRACK 72 AUDIO
    TITLE "4:cjc128_1472"
    INDEX 01 02:56:49
  TRACK 73 AUDIO
    TITLE "0:"
    INDEX 01 02:59:13
  TRACK 74 AUDIO
    TITLE "5:cjc128_1473"
    INDEX 01 03:03:03
  TRACK 75 AUDIO
    TITLE "0:"
    INDEX 01 03:06:07
  TRACK 76 AUDIO
    TITLE "6:cjc128_1474"
    INDEX 01 03:06:73
  TRACK 77 AUDIO
    TITLE "0:"
    INDEX 01 03:08:66
  TRACK 78 AUDIO
    TITLE "4:cjc128_1475"
    INDEX 01 03:09:62
  TRACK 79 AUDIO
    TITLE "0:"
    INDEX 01 03:12:45
  TRACK 80 AUDIO
    TITLE "5:cjc128_1476"
    INDEX 01 03:16:13
  TRACK 81 AUDIO
    TITLE "0:"
    INDEX 01 03:19:05
  TRACK 82 AUDIO
    TITLE "6:cjc128_1477"
    INDEX 01 03:19:58
  TRACK 83 AUDIO
    TITLE "0:"
    INDEX 01 03:21:53
  TRACK 84 AUDIO
    TITLE "4:cjc128_1478"
    INDEX 01 03:22:43
  TRACK 85 AUDIO
    TITLE "0:"
    INDEX 01 03:25:73
  TRACK 86 AUDIO
    TITLE "5:cjc128_1479"
    INDEX 01 03:30:21
  TRACK 87 AUDIO
    TITLE "0:"
    INDEX 01 03:33:49
  TRACK 88 AUDIO
    TITLE "6:cjc128_1480"
    INDEX 01 03:34:38
  TRACK 89 AUDIO
    TITLE "0:"
    INDEX 01 03:36:31
  TRACK 90 AUDIO
    TITLE "4:cjc128_1481"
    INDEX 01 03:37:23
  TRACK 91 AUDIO
    TITLE "0:"
    INDEX 01 03:41:40
  TRACK 92 AUDIO
    TITLE "5:cjc128_1482"
    INDEX 01 03:45:30
  TRACK 93 AUDIO
    TITLE "0:"
    INDEX 01 03:48:40
  TRACK 94 AUDIO
    TITLE "6:cjc128_1483"
    INDEX 01 03:49:34
  TRACK 95 AUDIO
    TITLE "0:"
    INDEX 01 03:51:41
  TRACK 96 AUDIO
    TITLE "4:cjc128_1484"
    INDEX 01 03:52:36
  TRACK 97 AUDIO
    TITLE "0:"
    INDEX 01 03:55:29
  TRACK 98 AUDIO
    TITLE "5:cjc128_1485"
    INDEX 01 03:59:56
  TRACK 99 AUDIO
    TITLE "0:"
    INDEX 01 04:02:74
  TRACK 100 AUDIO
    TITLE "6:cjc128_1486"
    INDEX 01 04:03:71
  TRACK 101 AUDIO
    TITLE "0:"
    INDEX 01 04:05:58
  TRACK 102 AUDIO
    TITLE "4:cjc128_1487"
    INDEX 01 04:06:52
  TRACK 103 AUDIO
    TITLE "0:"
    INDEX 01 04:10:01
  TRACK 104 AUDIO
    TITLE "5:cjc128_1488"
    INDEX 01 04:13:50
  TRACK 105 AUDIO
    TITLE "0:"
    INDEX 01 04:16:31
  TRACK 106 AUDIO
    TITLE "6:cjc128_1489"
    INDEX 01 04:17:17
  TRACK 107 AUDIO
    TITLE "0:"
    INDEX 01 04:19:08
  TRACK 108 AUDIO
    TITLE "4:cjc128_1490"
    INDEX 01 04:20:01
  TRACK 109 AUDIO
    TITLE "0:"
    INDEX 01 04:23:31
  TRACK 110 AUDIO
    TITLE "5:cjc128_1491"
    INDEX 01 04:26:72
  TRACK 111 AUDIO
    TITLE "0:"
    INDEX 01 04:29:71
  TRACK 112 AUDIO
    TITLE "6:cjc128_1492"
    INDEX 01 04:30:47
  TRACK 113 AUDIO
    TITLE "0:"
    INDEX 01 04:32:10
  TRACK 114 AUDIO
    TITLE "4:cjc128_1493"
    INDEX 01 04:33:06
  TRACK 115 AUDIO
    TITLE "0:"
    INDEX 01 04:36:43
  TRACK 116 AUDIO
    TITLE "5:cjc128_1494"
    INDEX 01 04:40:41
  TRACK 117 AUDIO
    TITLE "0:"
    INDEX 01 04:43:28
  TRACK 118 AUDIO
    TITLE "6:cjc128_1495"
    INDEX 01 04:44:23
  TRACK 119 AUDIO
    TITLE "0:"
    INDEX 01 04:46:14
  TRACK 120 AUDIO
    TITLE "4:cjc128_1496"
    INDEX 01 04:47:12
  TRACK 121 AUDIO
    TITLE "0:"
    INDEX 01 04:50:04
  TRACK 122 AUDIO
    TITLE "5:cjc128_1497"
    INDEX 01 04:54:10
  TRACK 123 AUDIO
    TITLE "0:"
    INDEX 01 04:57:00
  TRACK 124 AUDIO
    TITLE "6:cjc128_1498"
    INDEX 01 04:58:00
  TRACK 125 AUDIO
    TITLE "0:"
    INDEX 01 04:59:64
  TRACK 126 AUDIO
    TITLE "4:cjc128_1499"
    INDEX 01 05:00:63
  TRACK 127 AUDIO
    TITLE "0:"
    INDEX 01 05:03:46
  TRACK 128 AUDIO
    TITLE "5:cjc128_1500"
    INDEX 01 05:07:44
  TRACK 129 AUDIO
    TITLE "0:"
    INDEX 01 05:10:58
  TRACK 130 AUDIO
    TITLE "6:cjc128_1501"
    INDEX 01 05:11:53
  TRACK 131 AUDIO
    TITLE "0:"
    INDEX 01 05:13:45
  TRACK 132 AUDIO
    TITLE "4:cjc128_1502"
    INDEX 01 05:14:40
  TRACK 133 AUDIO
    TITLE "0:"
    INDEX 01 05:18:59
  TRACK 134 AUDIO
    TITLE "5:cjc128_1503"
    INDEX 01 05:22:18
  TRACK 135 AUDIO
    TITLE "0:"
    INDEX 01 05:24:68
  TRACK 136 AUDIO
    TITLE "6:cjc128_1504"
    INDEX 01 05:25:63
  TRACK 137 AUDIO
    TITLE "0:"
    INDEX 01 05:27:56
  TRACK 138 AUDIO
    TITLE "4:cjc128_1505"
    INDEX 01 05:28:52
  TRACK 139 AUDIO
    TITLE "0:"
    INDEX 01 05:32:56
  TRACK 140 AUDIO
    TITLE "5:cjc128_1506"
    INDEX 01 05:37:04
  TRACK 141 AUDIO
    TITLE "0:"
    INDEX 01 05:40:26
  TRACK 142 AUDIO
    TITLE "6:cjc128_1507"
    INDEX 01 05:41:19
  TRACK 143 AUDIO
    TITLE "0:"
    INDEX 01 05:43:22
  TRACK 144 AUDIO
    TITLE "4:cjc128_1508"
    INDEX 01 05:44:08
  TRACK 145 AUDIO
    TITLE "0:"
    INDEX 01 05:47:41
  TRACK 146 AUDIO
    TITLE "5:cjc128_1509"
    INDEX 01 05:51:10
  TRACK 147 AUDIO
    TITLE "0:"
    INDEX 01 05:54:04
